<svg width="30" height="30" viewBox="0 0 30 30" fill="none" xmlns="http://www.w3.org/2000/svg">
<path d="M20.7588 17.8019C24.36 12.7168 23.1556 5.67528 18.0704 2.07497C12.9853 -1.52535 5.94378 -0.321801 2.34346 4.76424C-1.25685 9.84941 -0.0533076 16.89 5.03273 20.4903C8.6623 23.06 13.461 23.2579 17.2893 20.9971L25.6074 29.2653C26.5056 30.2108 27.9999 30.2486 28.9454 29.3505C29.8908 28.4532 29.9287 26.9589 29.0314 26.0134C29.003 25.9833 28.9755 25.9558 28.9454 25.9274L20.7588 17.8019ZM11.5443 18.5728C7.52585 18.5736 4.26793 15.3183 4.26535 11.2999C4.26449 7.28145 7.51983 4.02353 11.5391 4.02181C15.5524 4.02008 18.8086 7.27026 18.8163 11.2835C18.8232 15.3028 15.5696 18.5659 11.5494 18.5728C11.5477 18.5728 11.5468 18.5728 11.5443 18.5728Z" fill="#555555"/>
</svg>
